<svg xmlns="http://www.w3.org/2000/svg" xmlns:xlink="http://www.w3.org/1999/xlink">
    <symbol width="33" height="33" viewBox="-2 -2 37 37" fill="none"  id="arrow-right" xmlns="http://www.w3.org/2000/svg">
        <path d="M24.53 17.53a.75.75 0 000-1.06l-4.773-4.773a.75.75 0 00-1.06 1.06L22.939 17l-4.242 4.243a.75.75 0 101.06 1.06l4.773-4.773zM10 17.75h14v-1.5H10v1.5zm21.5-1.25c0 8.284-6.716 15-15 15v3c9.941 0 18-8.059 18-18h-3zm-15 15c-8.284 0-15-6.716-15-15h-3c0 9.941 8.059 18 18 18v-3zm-15-15c0-8.284 6.716-15 15-15v-3c-9.941 0-18 8.059-18 18h3zm15-15c8.284 0 15 6.716 15 15h3c0-9.941-8.059-18-18-18v3z"  fill="white"/>
    </symbol>
    <symbol viewBox="0 0 28 28" id="calc" xmlns="http://www.w3.org/2000/svg">
        <path fill-rule="evenodd" clip-rule="evenodd" d="M27.5.5H.5v27h27V.5zm-1 1h-25v25h25v-25z" />
        <path d="M18.5 18.5h3v3h-3v-3zM12.5 18.5h3v3h-3v-3zM6.5 18.5h3v3h-3v-3zM18.5 12.5h3v3h-3v-3zM12.475 12.5h3v3h-3v-3zM6.5 12.5h3v3h-3v-3zM6.5 6.5h15v3h-15v-3z" />
    </symbol>
    <symbol viewBox="-2 -2 41 41" id="circle-arrow-top-left" xmlns="http://www.w3.org/2000/svg">
        <path d="M24.523 14.567a.65.65 0 00-.593-.702l-5.83-.491a.65.65 0 10-.109 1.295l5.182.437-.436 5.181a.65.65 0 001.295.11l.491-5.83zm-9.65 8.4l9.422-7.958-.839-.993-9.422 7.958.839.993zM31.64 7.402c6.13 7.257 5.215 18.108-2.042 24.238l1.678 1.986c8.354-7.056 9.406-19.548 2.35-27.902L31.64 7.402zM29.598 31.64c-7.257 6.13-18.108 5.215-24.238-2.042l-1.986 1.678c7.056 8.354 19.548 9.406 27.902 2.35l-1.678-1.986zM5.36 29.598C-.77 22.341.145 11.49 7.402 5.36L5.724 3.374c-8.354 7.056-9.406 19.548-2.35 27.902l1.986-1.678zM7.402 5.36C14.659-.77 25.51.145 31.64 7.402l1.986-1.678C26.57-2.63 14.078-3.682 5.724 3.374L7.402 5.36z" />
    </symbol>
    <symbol viewBox="0 0 10 15" id="flash" xmlns="http://www.w3.org/2000/svg">
        <path d="M6.206.713L5.664 5.42a.16.16 0 00.14.176l3.459.399c.12.013.18.149.114.247l-5.244 7.76c-.093.138-.306.061-.292-.102l.453-5.245a.16.16 0 00-.14-.172L.631 8.078a.159.159 0 01-.11-.255L5.92.601c.097-.132.305-.048.286.112z" />
    </symbol>
    <symbol viewBox="0 0 27 23" id="list-menu" xmlns="http://www.w3.org/2000/svg">
        <path d="M0 22h27M0 15h27M0 8h27M0 1h27" stroke="white" stroke-width="2"/>
    </symbol>
    <symbol viewBox="0 0 23 22" id="search" xmlns="http://www.w3.org/2000/svg">
        <path fill-rule="evenodd" clip-rule="evenodd" d="M13.753 12.753a7.3 7.3 0 00.113-10.496C10.931-.677 6.12-.736 3.121 2.127a7.3 7.3 0 00-.114 10.495c2.936 2.934 7.747 2.993 10.746.13zm-.532-.531a6.57 6.57 0 00.102-9.447C10.681.135 6.351.082 3.653 2.658a6.57 6.57 0 00-.103 9.446c2.643 2.64 6.972 2.694 9.671.118z" />
        <path fill-rule="evenodd" clip-rule="evenodd" d="M12.69 11.69a5.84 5.84 0 00.09-8.396C10.433.946 6.583.899 4.184 3.189a5.84 5.84 0 00-.09 8.397c2.348 2.347 6.196 2.394 8.595.104zm-.532-.531a5.11 5.11 0 00.08-7.347c-2.056-2.054-5.423-2.095-7.522-.092a5.11 5.11 0 00-.08 7.347c2.055 2.054 5.423 2.095 7.522.092z" />
        <path d="M12.784 12.973l-.723.69 7.073 7.07c.78.78 2.062.795 2.86.033a1.944 1.944 0 00.033-2.795l-7.073-7.07-.723.69 7.073 7.07a.972.972 0 01-.016 1.398c-.4.381-1.04.374-1.431-.017l-7.073-7.07z" />
        <path d="M15.804 15.99l1.414-1.414.707.707-1.414 1.415-.707-.707z" />
    </symbol>
    <symbol viewBox="0 0 83 44" id="union" xmlns="http://www.w3.org/2000/svg">
        <path d="M46.353 2.118v10.165L35.938.75l-1.71 1.895 10.414 11.533h-9.18v2.68h13.31V2.117h-2.419z" />
        <path d="M41.5 40.25C20.247 40.25 3 22.902 3 1.482H0C0 24.541 18.57 43.25 41.5 43.25S83 24.54 83 1.482h-3c0 21.42-17.246 38.768-38.5 38.768z" />
    </symbol>
</svg>